<?xml version="1.0" encoding="iso-8859-1"?>
<!-- Generator: Adobe Illustrator 19.0.0, SVG Export Plug-In . SVG Version: 6.00 Build 0)  -->
<svg version="1.1" id="Capa_1" xmlns="http://www.w3.org/2000/svg" xmlns:xlink="http://www.w3.org/1999/xlink" x="0px" y="0px"
	 viewBox="0 0 512 512" style="enable-background:new 0 0 512 512;" xml:space="preserve">
<path style="fill:#2196F3;" d="M53.333,0h405.333C488.122,0,512,23.878,512,53.333v405.333C512,488.122,488.122,512,458.667,512
	H53.333C23.878,512,0,488.122,0,458.667V53.333C0,23.878,23.878,0,53.333,0z"/>
<path style="fill:#FAFAFA;" d="M394.667,149.333h42.667c5.891,0,10.667-4.776,10.667-10.667v-64C448,68.776,443.224,64,437.333,64
	h-42.667c-64.801,0-117.333,52.532-117.333,117.333v53.333H224c-5.891,0-10.667,4.776-10.667,10.667v64
	c0,5.891,4.776,10.667,10.667,10.667h53.333v192h85.333V320H416c4.589-0.003,8.662-2.942,10.112-7.296l21.333-64
	c1.862-5.589-1.16-11.629-6.749-13.491c-1.084-0.361-2.22-0.546-3.363-0.547h-74.667v-53.333
	C362.667,163.66,376.994,149.333,394.667,149.333z"/>
<path d="M458.667,512H352c-5.891,0-10.667-4.776-10.667-10.667v-192c0-5.891,4.776-10.667,10.667-10.667h56.32L422.549,256H352
	c-5.891,0-10.667-4.776-10.667-10.667v-64c0-29.455,23.878-53.333,53.333-53.333h32V85.333h-32c-53.019,0-96,42.981-96,96v64
	c0,5.891-4.776,10.667-10.667,10.667h-53.333v42.667H288c5.891,0,10.667,4.776,10.667,10.667v192
	c0,5.891-4.776,10.667-10.667,10.667H53.333C23.878,512,0,488.122,0,458.667V53.333C0,23.878,23.878,0,53.333,0h405.333
	C488.122,0,512,23.878,512,53.333v405.333C512,488.122,488.122,512,458.667,512z M362.667,490.667h96c17.673,0,32-14.327,32-32
	V53.333c0-17.673-14.327-32-32-32H53.333c-17.673,0-32,14.327-32,32v405.333c0,17.673,14.327,32,32,32h224V320H224
	c-5.891,0-10.667-4.776-10.667-10.667v-64c0-5.891,4.776-10.667,10.667-10.667h53.333v-53.333
	C277.416,116.566,329.899,64.082,394.667,64h42.667C443.224,64,448,68.776,448,74.667v64c0,5.891-4.776,10.667-10.667,10.667
	h-42.667c-17.673,0-32,14.327-32,32v53.333h74.667c5.891-0.007,10.673,4.762,10.68,10.653c0.001,1.15-0.183,2.293-0.547,3.384
	l-21.333,64c-1.453,4.362-5.536,7.302-10.133,7.296h-53.333V490.667z"/>
<g>
</g>
<g>
</g>
<g>
</g>
<g>
</g>
<g>
</g>
<g>
</g>
<g>
</g>
<g>
</g>
<g>
</g>
<g>
</g>
<g>
</g>
<g>
</g>
<g>
</g>
<g>
</g>
<g>
</g>
</svg>
