<svg xmlns="http://www.w3.org/2000/svg" width="18" height="27" viewBox="0 0 18 27">
    <path fill="#FFF" fill-rule="evenodd" d="M14.817 23.274c-.572-.378-1.146-.753-1.712-1.14-2.231-1.524-4.395-3.139-6.43-4.914-1.92-1.677-3.655-3.538-5.278-5.502l-.065-.079c-.165-.214-.379-.288-.637-.205-.232.074-.36.274-.345.565.092 1.74.182 3.481.29 5.22.054.878.089 1.761.228 2.627.649 4.025 4.035 6.891 8.357 6.904 2.076-.043 4.069-.859 5.708-2.505.35-.352.305-.693-.116-.971M3.717 6.437c.171-.096.26-.217.334-.389.657-1.519 1.774-2.55 3.343-3.095.078-.027.16-.043.275-.073-.09.224-.182.406-.24.598-.213.718-.055 1.358.475 1.885.524.522 1.156.726 1.885.51.674-.2 1.16-.855 1.162-1.533.002-.621-.408-1.186-1.002-1.38-.257-.085-.493-.02-.645.177-.214.276-.126.666.187.833.371.197.45.337.338.593-.124.283-.449.435-.75.337-.441-.143-.785-.594-.564-1.084.046-.101.078-.209.128-.307.354-.698.654-.846 1.415-.674 1.865.421 3.168 1.516 3.93 3.26.06.134.176.27.302.344 1 .581 1.09 1.943.156 2.62-.14.102-.198.216-.232.37-.474 2.144-2.272 3.823-4.434 4.147-2.694.403-5.332-1.362-5.979-4.01-.056-.23-.14-.403-.335-.565-.838-.696-.703-2.023.252-2.564m3.218 9.535c.295.277.524.316.887.157 3.44-1.51 6.644-3.405 9.569-5.763.235-.19.364-.404.358-.695-.013-.563.014-1.131-.062-1.685-.49-3.574-3.28-6.535-6.83-7.275C10.431.623 9.998.57 9.57.5H8.436c-.083.016-.166.041-.25.048-1.002.079-1.966.317-2.87.75C2.536 2.63.854 4.807.286 7.836c-.084.445-.027.786.278 1.168 1.967 2.467 4.07 4.807 6.373 6.967m10.345-3.78c-.244-.127-.455-.063-.668.09-.606.433-1.21.872-1.831 1.282-1.807 1.19-3.746 2.139-5.696 3.068-.538.257-.594.687-.119 1.045 1.272.96 2.542 1.921 3.833 2.854.868.627 1.766 1.212 2.657 1.806.347.232.668.155.85-.186.52-.98.812-2.046.914-3.127.179-1.904.235-3.819.342-5.729h-.006c.013-.162.023-.324.04-.485.026-.274-.064-.487-.316-.618m-6.103-3.494c.287.001.544-.252.544-.537 0-.292-.244-.533-.54-.533-.309 0-.533.222-.535.53-.001.296.237.538.531.54m-4.417-.001c.293.006.538-.233.542-.529.005-.307-.217-.535-.523-.54-.3-.003-.544.228-.55.521-.006.289.24.541.53.548m1.363 2.412c.422.417 1.307.425 1.742.018.061-.057.116-.127.156-.2.132-.241.08-.397-.185-.463-.27-.068-.552-.096-.837-.142-.287.048-.576.079-.855.149-.229.058-.278.196-.18.41.038.083.094.163.16.228"/>
</svg>
