<svg xmlns="http://www.w3.org/2000/svg" width="18" height="28" viewBox="0 0 18 28">
    <path fill="#FFF" fill-rule="evenodd" d="M12.921 15.65c-.077-.705-.348-.948-1.054-1.06-.794-.126-1.052-.436-1.047-1.243.002-.512.007-1.025-.014-1.537-.024-.556-.229-.757-.786-.77-.64-.014-1.28-.017-1.92.003-.64.02-.874.261-.904.897-.027.558-.035 1.117-.052 1.676-.013.451-.226.757-.67.891-.243.073-.49.136-.728.22-.327.113-.57.29-.6.686-.031.416-.123.828-.177 1.243-.118.893-.23 1.787-.344 2.69.06.011.095.023.131.023l3.162-.006c.259 0 .416-.138.517-.362.155-.346.316-.69.5-1.086.154.254.28.468.412.679.535.86.343.766 1.362.773.835.006 1.67.001 2.538.001l-.06-.685c-.087-1.011-.155-2.024-.266-3.033zm4.393-2.566c-1.511-1.508-3.04-2.997-4.563-4.493-.452-.443-1.005-.728-1.63-.745-1.41-.038-2.82-.038-4.23-.014-.621.01-1.149.29-1.597.735-1.542 1.53-3.097 3.046-4.646 4.569-.067.065-.127.138-.18.214-.326.467-.284 1.01.108 1.433.385.416.948.51 1.434.224.152-.09.29-.208.416-.332.863-.845 1.72-1.696 2.58-2.543.076-.074.163-.138.306-.259v2.181c.077.006.114.012.15.012.948-.007 1.089-.145 1.1-1.087.006-.577 0-1.155.018-1.732.016-.482.303-.812.753-.819 1.11-.018 2.221-.015 3.331-.002.397.005.657.23.726.618.048.272.036.555.045.834.018.558.026 1.116.05 1.673.01.213.122.39.34.43.28.054.567.066.88.098V11.83c.394.386.736.717 1.073 1.052.61.608 1.214 1.222 1.828 1.827.333.33.72.552 1.215.43.983-.242 1.248-1.302.493-2.056zM5.318 20.226v2.202c.004 1.276-.008 2.553.017 3.828.02 1.028.944 1.709 1.893 1.432.608-.177 1.041-.754 1.05-1.47.02-1.36.014-2.72.017-4.08.002-.633 0-1.265 0-1.912H5.319zm7.363-.01H9.703v.324c0 1.444-.003 2.887.002 4.331.001.512-.006 1.027.042 1.535.072.76.64 1.3 1.353 1.341.73.043 1.326-.407 1.509-1.162.052-.215.069-.442.07-.664.005-1.76.002-3.521.002-5.282v-.423zM8.988 7.191c1.883.025 3.488-1.52 3.519-3.39.031-1.907-1.531-3.53-3.419-3.55-1.945-.023-3.566 1.527-3.6 3.44-.032 1.883 1.557 3.473 3.5 3.5z"/>
</svg>
