<svg xmlns="http://www.w3.org/2000/svg" width="20" height="20" viewBox="0 0 20 20">
    <path fill="#FFF" fill-rule="evenodd" d="M2.571 10c.36.659.8 1.33 1.313 2.007-.2.122-.394.262-.568.435-1.168 1.17-1.248 3.152-.08 4.32 1.169 1.17 3.15 1.09 4.318-.08.175-.174.314-.368.437-.57.672.508 1.345.945 2.009 1.308-.212.339-.455.664-.75.959-2.107 2.107-5.603 2.187-7.71.08-2.106-2.108-2.026-5.605.08-7.713.293-.292.615-.535.951-.746zm.612-5.57c1.345-1.344 4.216-.647 7.212 1.66-.628.933-1.16 1.337-1.459 1.67l-.798.8-1.239-1.24-.825.826.334.334.847.847.741.742.606.606.207.206.62.62.404.404.387.388.365.364 1.145 1.146.124.123.826-.825-1.24-1.24.767-.77c.67-.589 1.178-1.051 1.718-1.466 2.295 2.989 2.986 5.85 1.645 7.192-1.648 1.647-5.553.227-9.083-3.303-3.531-3.531-4.95-7.436-3.304-9.084zM14.42.595c1.357-.908 3.261-.794 4.518.463 1.421 1.42 1.41 3.697.008 5.099-.538.537-1.218.885-1.966 1.007-2.77.452-4.086 1.85-5.68 3.237l-.85.849L8.75 9.552l.475-.475.278-.277.097-.097c.284-.374 2.356-1.79 3.28-5.887.204-.905.75-1.693 1.539-2.221z"/>
</svg>
