<svg xmlns="http://www.w3.org/2000/svg" width="50" height="50" viewBox="0 0 50 50">
    <path fill="#4EBDFF" fill-rule="evenodd" d="M28.315 23.34H25.6v10.287h-1.867l-.001-10.288h-2.48l-.005-2.056h2.486v-3.199c0-2.789 2.102-2.962 2.626-2.962.074 0 .117.003.117.003H28.1l-.008 2.059h-1.616c-.889 0-.868.836-.868.836v3.264h3.146l-.44 2.055zm1.436-2.879c-.234-.346-.605-.55-.997-.55h-1.9v-1.354h1.239c.685 0 1.242-.611 1.245-1.367l.009-1.989.002-.075c0-.758-.557-1.373-1.245-1.373H26.51c-.035-.002-.087-.003-.151-.003-.448 0-1.323.082-2.152.632-.785.52-1.72 1.585-1.72 3.703v1.827h-1.24c-.331 0-.649.145-.883.403-.233.259-.364.609-.363.974l.005 2.055c.003.756.56 1.368 1.246 1.368h1.233l.002 8.915c0 .759.558 1.373 1.246 1.373h1.866c.688 0 1.246-.615 1.246-1.373v-8.915h1.471c.553 0 1.04-.402 1.195-.986l.44-2.056c.11-.415.037-.863-.199-1.209z"/>
</svg>
