<svg xmlns="http://www.w3.org/2000/svg" width="50" height="50" viewBox="0 0 50 50">
    <g fill="none" fill-rule="evenodd">
        <path fill="#4EBDFF" d="M19.313 12c.788 0 1.439.602 1.515 1.371h16.41c.421 0 .762.341.762.762v16.504c0 .42-.341.762-.762.762H25.762v4.316c0 1.26-1.025 2.285-2.285 2.285H17.94c-1.26 0-2.285-1.025-2.285-2.285V32.77h-2.133c-.84 0-1.523-.684-1.523-1.524V13.523c0-.84.683-1.523 1.523-1.523zm4.925 19.399h-3.41c-.076.768-.727 1.37-1.515 1.37H17.18v2.946c0 .42.341.762.761.762h5.536c.42 0 .761-.342.761-.762v-4.316zm-4.925-17.876h-5.79v17.723h5.79V13.523zm17.164 1.372H20.836v14.98h15.64v-14.98zM25.245 26.828c.42 0 .761.341.761.762 0 .42-.34.762-.761.762h-.813c-.42 0-.761-.341-.761-.762 0-.42.34-.762.761-.762zm3.817 0c.421 0 .762.341.762.762 0 .42-.34.762-.762.762h-.812c-.42 0-.762-.341-.762-.762 0-.42.341-.762.762-.762zm3.86 0c.42 0 .762.341.762.762 0 .42-.341.762-.762.762h-.813c-.42 0-.761-.341-.761-.762 0-.42.34-.762.761-.762zm-7.677-3.047c.42 0 .761.341.761.762 0 .42-.34.762-.761.762h-.813c-.42 0-.761-.341-.761-.762 0-.42.34-.762.761-.762zm3.817 0c.421 0 .762.341.762.762 0 .42-.34.762-.762.762h-.812c-.42 0-.762-.341-.762-.762 0-.42.341-.762.762-.762zm3.86 0c.42 0 .762.341.762.762 0 .42-.341.762-.762.762h-.813c-.42 0-.761-.341-.761-.762 0-.42.34-.762.761-.762zm-7.719-3.047c.42 0 .762.341.762.762 0 .42-.341.762-.762.762h-.812c-.421 0-.762-.341-.762-.762 0-.42.34-.762.762-.762zm3.86 0c.42 0 .761.341.761.762 0 .42-.34.762-.762.762h-.812c-.42 0-.762-.341-.762-.762 0-.42.341-.762.762-.762zm3.859 0c.42 0 .762.341.762.762 0 .42-.341.762-.762.762h-.813c-.42 0-.761-.341-.761-.762 0-.42.34-.762.761-.762zm-.013-4.164c.42 0 .762.341.762.762 0 .42-.341.762-.762.762h-8.506c-.42 0-.761-.341-.761-.762 0-.42.34-.762.761-.762z"/>
    </g>
</svg>
