<svg xmlns="http://www.w3.org/2000/svg" width="50" height="50" viewBox="0 0 50 50">
    <path fill="#4EBDFF" d="M29.745 13.75c3.588.01 6.494 2.917 6.505 6.505v8.24c-.01 3.588-2.917 6.494-6.505 6.505h-8.24c-3.588-.01-6.494-2.917-6.505-6.505v-8.24c.01-3.588 2.917-6.494 6.505-6.505zm0 1.735h-8.24c-2.635 0-4.77 2.135-4.77 4.77v8.24c0 2.635 2.135 4.77 4.77 4.77h8.24c2.635 0 4.77-2.135 4.77-4.77v-8.24c0-2.635-2.135-4.77-4.77-4.77zm-4.131 3.265c1.493-.003 2.927.588 3.984 1.643 1.057 1.055 1.651 2.486 1.652 3.98.001 3.105-2.514 5.624-5.62 5.627-3.105.003-5.626-2.512-5.63-5.617-.004-3.105 2.509-5.627 5.614-5.633zm0 1.752c-2.136.004-3.867 1.735-3.87 3.87-.001 1.568.942 2.98 2.39 3.58 1.447.6 3.113.27 4.22-.839 1.108-1.107 1.44-2.774.84-4.221s-2.013-2.39-3.58-2.39zM31.25 17.5c.332 0 .65.132.884.366.234.235.366.552.366.884 0 .69-.56 1.25-1.25 1.25S30 19.44 30 18.75s.56-1.25 1.25-1.25z"/>
</svg>
