<svg xmlns="http://www.w3.org/2000/svg" width="50" height="50" viewBox="0 0 50 50">
    <g fill="none" fill-rule="evenodd">
        <path fill="#4EBDFF" d="M30.848 10.002c1.48.001 2.679.978 2.993 2.448.064.301.075.62.076.93.004 7.115.003 14.23.003 21.346 0 .988-.018 1.976.007 2.963.04 1.626-1.057 3-2.534 3.241-.027.005-.051.027-.077.04h-12.71c-.458-.203-.963-.337-1.366-.623-.881-.627-1.24-1.558-1.239-2.658.005-2.872 0-5.744 0-8.617l.002-13.062c0-.917-.005-1.833-.002-2.75.007-1.926 1.3-3.258 3.16-3.259 3.896-.001 7.791-.002 11.687 0zm1.871 26.027H17.227c0 .726-.01 1.439.008 2.15.004.173.084.353.162.512.373.758 1 1.047 1.794 1.045 2.37-.005 4.74-.002 7.11-.002 1.485 0 2.971.004 4.457-.002 1.228-.004 1.958-.766 1.961-2.031v-1.672zm-7.769 1.239c.333-.006.596.26.598.602.002.337-.268.62-.59.617-.312-.002-.574-.269-.583-.594-.01-.345.243-.62.575-.625zm7.76-21.054H17.224v18.544H32.71V16.214zm-1.98-4.978c-2.351.005-4.702.002-7.052.002-1.506 0-3.011-.004-4.517 0-1.02.004-1.8.58-1.911 1.526-.084.711-.017 1.442-.017 2.178H32.7c0-.718.011-1.421-.008-2.123-.005-.182-.085-.374-.167-.541-.373-.759-1.003-1.044-1.795-1.042zm-4.677 1.245c.421.003.69.243.696.607.007.36-.261.615-.677.626-.369.01-.738.002-1.107.002v-.002c-.37 0-.738.007-1.107-.002-.42-.01-.686-.258-.682-.62.004-.364.273-.608.692-.61.728-.005 1.457-.005 2.185 0z"/>
    </g>
</svg>
