<svg xmlns="http://www.w3.org/2000/svg" width="50" height="50" viewBox="0 0 50 50">
    <g fill="none" fill-rule="evenodd">
        <path fill="#4EBDFF" fill-rule="nonzero" d="M17.781 14.445c.644 0 1.256.27 1.767.776.343.316.675.654.992.98.158.17.327.338.49.502l1.44 1.44c1.108 1.107 1.108 2.542 0 3.65-.147.147-.295.3-.443.448-.39.395-.79.807-1.223 1.202.321.712.764 1.414 1.424 2.247 1.36 1.672 2.78 2.964 4.34 3.956.153.095.333.184.523.28.131.068.268.137.406.21l1.666-1.661c.533-.533 1.155-.812 1.804-.812.654 0 1.271.285 1.783.817l2.895 2.906c.533.528.813 1.155.813 1.81 0 .648-.275 1.281-.797 1.824-.227.238-.459.464-.685.68-.333.322-.65.623-.923.955-.006.01-.016.016-.022.027-.801.87-1.824 1.308-3.043 1.308-.105 0-.221-.006-.332-.01-1.81-.117-3.428-.797-4.641-1.372-3.176-1.535-5.955-3.713-8.265-6.472-1.904-2.289-3.18-4.425-4.035-6.73-.348-.938-.802-2.373-.675-3.913.084-.955.47-1.777 1.144-2.453l1.794-1.809.01-.01c.528-.507 1.15-.776 1.793-.776zm.011 1.425c-.269 0-.543.131-.802.374l-1.798 1.799c-.438.437-.675.949-.728 1.566-.08.965.1 1.988.59 3.302.797 2.152 2 4.156 3.798 6.323 2.178 2.6 4.8 4.652 7.785 6.098 1.092.522 2.547 1.134 4.114 1.234.079.005.163.005.242.005.823 0 1.45-.269 1.984-.839.327-.385.675-.727 1.018-1.054.226-.222.437-.422.643-.644l.1-.112c.436-.52.402-1.037-.105-1.539l-2.906-2.906-.011-.01c-.163-.18-.432-.385-.76-.385-.332 0-.617.216-.796.395l-1.804 1.804c-.09.09-.364.364-.801.364-.174 0-.343-.042-.523-.132-.02-.01-.042-.026-.063-.037-.153-.095-.332-.185-.522-.28-.21-.105-.432-.216-.649-.353-1.693-1.07-3.228-2.468-4.683-4.261-.807-1.024-1.335-1.878-1.71-2.785l-.015-.048c-.095-.3-.18-.743.274-1.197.006-.01.016-.016.027-.026.459-.412.88-.834 1.324-1.287.153-.148.3-.3.453-.454.56-.559.56-1.076 0-1.635l-1.44-1.44-.5-.511c-.323-.333-.628-.644-.95-.944l-.016-.016c-.169-.17-.438-.37-.77-.37zm8.864 1.662l.097.01c1.672.284 3.196 1.075 4.404 2.283 1.208 1.208 1.999 2.732 2.284 4.404.063.39-.195.76-.586.823-.042.005-.079.01-.121.01-.343 0-.643-.242-.702-.59-.237-1.382-.886-2.637-1.888-3.64-1.002-1.002-2.257-1.656-3.639-1.888-.39-.063-.643-.437-.575-.822.069-.385.433-.644.823-.58zm.196-4.531l.096.01c2.753.47 5.259 1.767 7.252 3.76 1.994 1.994 3.291 4.5 3.76 7.253.07.385-.194.754-.58.812-.042.005-.079.01-.12.01-.344 0-.644-.242-.702-.59-.417-2.458-1.577-4.7-3.36-6.482-1.783-1.778-4.024-2.944-6.482-3.36-.39-.069-.649-.433-.585-.823.068-.385.432-.649.817-.58z"/>
    </g>
</svg>
