<svg xmlns="http://www.w3.org/2000/svg" width="50" height="50" viewBox="0 0 50 50">
    <g fill="none" fill-rule="evenodd">
        <path fill="#4EBDFF" fill-rule="nonzero" d="M24.871 10c2.45-.034 4.76.92 6.503 2.687 1.743 1.768 2.703 4.128 2.703 6.645 0 1.496-.334 2.926-.993 4.249l-.023.042-3.316 5.714 1.914.876c.16.07.292.197.37.364l3.846 8.366c.129.28.075.613-.136.834-.138.146-.325.223-.515.223-.098 0-.198-.021-.292-.064l-4.82-2.206-4.819 2.206c-.186.085-.4.085-.586 0l-4.82-2.206-4.819 2.206c-.275.126-.597.062-.807-.159-.21-.221-.265-.554-.136-.834l3.847-8.366c.073-.16.2-.288.358-.36l1.925-.88-3.316-5.714-.023-.042c-.658-1.322-1.002-2.81-.993-4.305.014-2.447.951-4.758 2.64-6.508s3.93-2.733 6.308-2.767zm4.13 20.617l-2.146 3.7c-.394.677-1.087 1.082-1.855 1.082s-1.462-.405-1.855-1.083l-2.147-3.699-1.839.841-2.903 6.314 3.339-1.528c.186-.086.4-.086.586 0L25 38.449l4.82-2.205c.186-.086.399-.086.585 0l3.338 1.528-2.903-6.313-1.838-.842zm-4.11-19.136c-4.126.059-7.504 3.56-7.528 7.803-.007 1.269.27 2.48.825 3.601l6.194 10.673c.189.326.495.36.618.36s.43-.034.618-.36l6.194-10.673c.548-1.106.825-2.301.825-3.553 0-2.118-.807-4.103-2.274-5.59s-3.41-2.29-5.471-2.26zm.11 4.473c1.811 0 3.285 1.515 3.285 3.378 0 1.863-1.474 3.378-3.286 3.378s-3.286-1.515-3.286-3.378c0-1.863 1.474-3.378 3.286-3.378zm0 1.48c-1.019 0-1.847.851-1.847 1.898S23.982 21.23 25 21.23c1.018 0 1.846-.852 1.846-1.898 0-1.047-.828-1.898-1.846-1.898z"/>
    </g>
</svg>
