<svg xmlns="http://www.w3.org/2000/svg" width="12" height="20" viewBox="0 0 12 20">
    <g fill="none" fill-rule="evenodd">
        <g fill="#FFF" fill-rule="nonzero">
            <g>
                <g>
                    <path d="M16.519 14.188c.382.458.345 1.161-.082 1.57l-3.022 2.894.068-.002h15c.553 0 1 .448 1 1s-.447 1-1 1H13.496l2.951 2.9c.422.416.45 1.12.063 1.573-.387.453-1.044.483-1.466.068l-4.3-4.228c-.042-.041-.082-.085-.12-.13-.637-.764-.576-1.936.136-2.619l4.293-4.114c.427-.41 1.084-.37 1.466.088z" transform="translate(-1384 -532) translate(1370 499) translate(0 23) rotate(90 19.833 19.65)"/>
                </g>
            </g>
        </g>
    </g>
</svg>
