<svg xmlns="http://www.w3.org/2000/svg" width="40" height="40" viewBox="0 0 40 40">
    <g fill="none" fill-rule="evenodd">
        <path fill="#4EBDFF" fill-rule="nonzero" d="M17 6c6.075 0 11 4.925 11 11 0 2.584-.891 4.96-2.383 6.838l5.892 6.026c.575.588.57 1.528-.012 2.11l-.012.011c-.579.58-1.518.58-2.097 0l-.012-.012-5.927-6.06C21.637 27.225 19.41 28 17 28c-6.075 0-11-4.925-11-11S10.925 6 17 6zm0 3c-4.418 0-8 3.582-8 8s3.582 8 8 8 8-3.582 8-8-3.582-8-8-8z"/>
        <path fill="#FFD756" d="M21.141 18L17 22.144 12.859 18c-1.145-1.142-1.145-2.996 0-4.141 1.142-1.145 2.996-1.145 4.141 0 1.145-1.145 3-1.145 4.141 0 1.145 1.145 1.145 3 0 4.141z"/>
    </g>
</svg>
