<svg xmlns="http://www.w3.org/2000/svg" width="50" height="50" viewBox="0 0 50 50">
    <path fill="#4EBDFF" fill-rule="evenodd" d="M33.848 20.393c.01.171.014.344.014.518 0 5.292-4.27 11.394-12.077 11.394-2.397 0-4.628-.663-6.507-1.799.33.035.67.057 1.012.057 1.989 0 3.819-.641 5.272-1.716-1.86-.03-3.425-1.19-3.966-2.781.26.046.526.072.797.072.388 0 .763-.05 1.118-.14-1.942-.37-3.405-1.987-3.405-3.93v-.049c.572.3 1.227.48 1.923.5-1.139-.719-1.887-1.946-1.887-3.334 0-.734.209-1.421.574-2.013 2.092 2.423 5.221 4.017 8.75 4.184-.074-.292-.11-.6-.11-.913 0-2.21 1.9-4.003 4.243-4.003 1.222 0 2.326.486 3.1 1.263.966-.179 1.875-.512 2.695-.971-.317.934-.99 1.719-1.866 2.214.858-.095 1.675-.31 2.437-.63-.568.807-1.286 1.512-2.117 2.077m3.013-3.248c.176-.563-.025-1.171-.514-1.538-.277-.209-.612-.314-.952-.314-.269 0-.537.066-.778.202-.48.265-.98.478-1.503.628-1-.722-2.239-1.123-3.513-1.123-2.92 0-5.34 2.055-5.72 4.713-2.328-.47-4.45-1.68-5.977-3.449-.291-.339-.728-.532-1.184-.532-.039 0-.079.003-.12.005-.5.037-.947.303-1.2.711-.513.83-.783 1.776-.783 2.74 0 .651.122 1.285.348 1.876-.243.262-.385.6-.385.959 0 1.428.572 2.741 1.524 3.728-.059.247-.05.507.036.757.33.973.932 1.81 1.712 2.45-.506.108-1.03.164-1.562.164-.275 0-.554-.017-.835-.047-.06-.007-.119-.01-.18-.01-.639 0-1.218.377-1.435.959-.24.63.014 1.336.612 1.698 2.194 1.327 4.73 2.028 7.333 2.028 8.44 0 13.513-6.41 13.604-12.666.687-.552 1.29-1.187 1.803-1.896.193-.242.308-.541.308-.87 0-.482-.252-.91-.639-1.173"/>
</svg>
