<svg xmlns="http://www.w3.org/2000/svg" width="170" height="148" viewBox="0 0 170 148">
    <g fill="none" fill-rule="evenodd">
        <g>
            <g>
                <g transform="translate(-485 -282) translate(430 247) translate(55 35)">
                    <path fill="#005ECC" d="M44.597 0c3.615 0 6.818.458 9.609 1.373 2.79.916 5.169 2.163 7.135 3.741 1.966 1.578 3.456 3.44 4.47 5.587 1.016 2.147 1.523 4.451 1.523 6.914 0 6.629-3.773 12.942-11.32 18.94L43.55 46.5h22.832c.38.695.745 1.579 1.094 2.652.349 1.073.523 2.241.523 3.504 0 2.273-.507 3.898-1.522 4.877C65.463 58.511 64.13 59 62.482 59h-33.01c-1.396-.947-2.49-2.162-3.283-3.646C25.396 53.87 25 52.118 25 50.098c0-2.147.444-3.962 1.332-5.446.888-1.483 1.87-2.667 2.949-3.55l13.128-11.176c1.65-1.389 3.013-2.636 4.091-3.74 1.078-1.105 1.95-2.1 2.616-2.984.666-.884 1.142-1.704 1.427-2.462.286-.758.428-1.484.428-2.178 0-1.768-.777-3.157-2.33-4.167-1.554-1.01-3.473-1.515-5.756-1.515-2.537 0-4.804.394-6.802 1.183-1.998.79-3.663 1.626-4.995 2.51-1.078-.758-1.966-1.705-2.663-2.841-.698-1.137-1.047-2.462-1.047-3.978 0-3.283 1.554-5.73 4.662-7.34C35.148.806 39.333 0 44.597 0zM19.528 86c7.198 0 12.675 1.487 16.43 4.46 3.756 2.974 5.634 6.964 5.634 11.972 0 3.005-.798 5.555-2.394 7.653-1.596 2.097-3.49 3.677-5.68 4.741 1.314.501 2.534 1.127 3.661 1.878 1.127.751 2.128 1.69 3.004 2.817.877 1.127 1.565 2.441 2.066 3.944.5 1.502.751 3.255.751 5.258 0 2.692-.579 5.102-1.737 7.23-1.158 2.128-2.77 3.944-4.835 5.446-2.066 1.502-4.522 2.645-7.37 3.427-2.848.783-5.962 1.174-9.342 1.174-6.51 0-11.423-.908-14.74-2.723S0 139.146 0 136.329c0-1.69.407-3.146 1.22-4.367.814-1.22 1.816-2.175 3.005-2.863 1.252.876 2.926 1.8 5.023 2.77 2.097.97 4.835 1.455 8.215 1.455 3.192 0 5.555-.563 7.088-1.69 1.534-1.127 2.3-2.598 2.3-4.413 0-1.816-.61-3.193-1.83-4.132-1.22-.939-3.333-1.408-6.338-1.408H9.858c-.438-.689-.814-1.534-1.127-2.535-.313-1.002-.469-2.191-.469-3.569 0-1.44.14-2.676.422-3.708.282-1.033.673-1.894 1.174-2.583h8.825c4.507 0 6.76-1.721 6.76-5.164 0-1.627-.72-2.942-2.16-3.944-1.439-1.001-3.598-1.502-6.477-1.502-2.567 0-4.82.297-6.76.892-1.94.595-3.537 1.33-4.788 2.207-1.064-.752-1.94-1.675-2.63-2.77-.688-1.096-1.032-2.395-1.032-3.897 0-3.13 1.627-5.43 4.882-6.901S14.083 86 19.528 86zM146.502 116c-2.917 0-5.565-.22-7.943-.662-2.379-.441-4.424-1.103-6.136-1.985-1.713-.883-3.045-1.97-3.996-3.262-.951-1.293-1.427-2.79-1.427-4.492 0-1.765.507-3.246 1.522-4.444 1.015-1.197 2.156-2.143 3.425-2.836 1.776 1.324 3.678 2.474 5.708 3.451 2.03.977 4.598 1.466 7.706 1.466 2.98 0 5.105-.662 6.374-1.986 1.268-1.324 1.902-2.931 1.902-4.822 0-1.828-.555-3.34-1.665-4.539-1.11-1.197-3.028-1.796-5.755-1.796-1.713 0-3.14.189-4.281.567-1.142.378-2.442.914-3.9 1.608-3.108-.126-5.566-.962-7.373-2.506-1.808-1.544-2.712-3.924-2.712-7.139v-.709c0-.283.032-.866.095-1.749l1.142-14.372c.19-2.71 1.047-4.853 2.569-6.43 1.522-1.575 3.646-2.363 6.374-2.363h27.398c.38.693.76 1.607 1.141 2.742.38 1.135.571 2.332.571 3.593 0 2.395-.539 4.097-1.617 5.106-1.078 1.008-2.442 1.513-4.09 1.513h-18.266l-.666 8.887c1.205-.315 2.426-.598 3.662-.85 1.237-.253 2.807-.379 4.71-.379 3.297 0 6.151.489 8.561 1.466s4.392 2.316 5.946 4.018c1.554 1.702 2.696 3.688 3.425 5.957.73 2.27 1.094 4.696 1.094 7.28 0 2.585-.444 5.075-1.332 7.47-.888 2.395-2.283 4.491-4.186 6.288-1.902 1.796-4.328 3.23-7.277 4.302-2.95 1.071-6.517 1.607-10.703 1.607z" opacity=".497"/>
                    <ellipse cx="85" cy="140" fill="#006FCB" fill-rule="nonzero" rx="32" ry="8"/>
                    <ellipse cx="85.5" cy="60" fill="#F67BB4" fill-rule="nonzero" rx="29.5" ry="34"/>
                    <path fill-rule="nonzero" stroke="#FFC200" stroke-linecap="square" d="M86.799 95c19.559 9.6-14.744 21.25 0 43"/>
                    <path fill="#F67BB4" fill-rule="nonzero" d="M82.167 93L86.833 93 88 99 81 99z"/>
                    <ellipse cx="71" cy="45" fill="#FF9FCC" fill-rule="nonzero" rx="6" ry="7"/>
                    <ellipse cx="65.5" cy="59" fill="#FF9FCC" fill-rule="nonzero" rx="2.5" ry="3"/>
                </g>
            </g>
        </g>
    </g>
</svg>
