<svg xmlns="http://www.w3.org/2000/svg" width="135" height="145" viewBox="0 0 135 145">
    <g fill="none" fill-rule="evenodd">
        <g>
            <g>
                <g transform="translate(-803 -287) translate(730 247) translate(70 39)">
                    <ellipse cx="68.321" cy="137.666" fill="#C2286E" fill-rule="nonzero" opacity=".2" rx="34.237" ry="8.334"/>
                    <path fill="#C2286E" fill-rule="nonzero" d="M136.799 50.33c4.593 26.606-13.297 22.866-22.834 22.843-.937-16.352 1.006-25.09 22.834-22.842z" opacity=".201" transform="rotate(-16 125.66 61.674)"/>
                    <path fill="#C2286E" fill-rule="nonzero" d="M44.298 3.898c4.594 26.605-13.296 22.865-22.833 22.843C20.527 10.388 22.47 1.65 44.298 3.898z" opacity=".201" transform="rotate(-16 33.16 15.24)"/>
                    <path fill="#C2286E" fill-rule="nonzero" d="M16.47 41.55c2.743 15.874-7.858 13.629-13.508 13.608-.569-9.756.576-14.967 13.508-13.609z" opacity=".201" transform="rotate(-62 9.882 48.307)"/>
                    <path fill="#C2286E" fill-rule="nonzero" d="M113.514 95.272c3.212 19.963-9.185 17.143-15.791 17.118-.668-12.268.668-18.823 15.791-17.118z" opacity=".201" transform="rotate(-62 105.813 103.773)"/>
                    <g>
                        <g>
                            <path fill="#9249A8" d="M72.078 23.042v64.836c-.007 2.75-2.154 4.98-4.805 4.988H4.805C2.155 92.857.008 90.629 0 87.878V23.042h72.078z" transform="translate(31.681 30.513)"/>
                            <path fill="#C27BD7" d="M45.04 46.084c-3.554.007-6.894 1.883-9 5.054-2.88-4.326-7.943-6.111-12.55-4.425-4.606 1.687-7.712 6.462-7.701 11.84 0 12.468 20.25 22.443 20.25 22.443s20.25-9.975 20.25-22.444c0-6.887-5.036-12.468-11.25-12.468z" transform="translate(31.681 30.513)"/>
                            <path fill="#9249A8" fill-rule="nonzero" d="M16.475 18.722v10.286c0 2.49 2.018 4.507 4.507 4.507 2.49 0 4.507-2.017 4.507-4.507V18.722c0-4.637 2.749-9.79 9.864-9.79 7.37 0 9.864 5.54 9.864 9.76v10.316c0 2.49 2.017 4.507 4.506 4.507 2.49 0 4.507-2.017 4.507-4.507V18.693C54.23 8.386 45.768 0 35.367 0c-10.4 0-18.892 8.415-18.892 18.722z" transform="translate(31.681 30.513)"/>
                        </g>
                    </g>
                </g>
            </g>
        </g>
    </g>
</svg>
