<svg xmlns="http://www.w3.org/2000/svg" width="375" height="184" viewBox="0 0 375 184">
    <g fill="none" fill-rule="evenodd">
        <path fill="#005ECC" d="M11.394 85c2.102 0 3.964.264 5.586.791 1.623.528 3.005 1.246 4.148 2.156 1.143.91 2.01 1.983 2.6 3.22.59 1.237.885 2.565.885 3.984 0 3.82-2.194 7.458-6.582 10.915l-7.246 5.73H24.06c.221.4.433.91.636 1.528.203.619.304 1.292.304 2.02 0 1.31-.295 2.246-.885 2.81-.59.564-1.364.846-2.323.846H2.6c-.812-.546-1.448-1.246-1.909-2.101-.46-.855-.691-1.865-.691-3.029 0-1.237.258-2.283.774-3.138.517-.855 1.088-1.537 1.715-2.047l7.633-6.44c.958-.8 1.751-1.518 2.378-2.155.627-.637 1.134-1.21 1.521-1.72.387-.509.664-.982.83-1.418.166-.437.249-.855.249-1.255 0-1.02-.452-1.82-1.356-2.402-.903-.582-2.018-.873-3.346-.873-1.475 0-2.793.228-3.954.682-1.162.455-2.13.937-2.904 1.447-.627-.437-1.143-.983-1.549-1.638-.405-.655-.608-1.419-.608-2.292 0-1.892.903-3.302 2.71-4.23C5.9 85.465 8.333 85 11.393 85zM367.394 150c2.102 0 3.964.272 5.586.815 1.623.543 3.005 1.282 4.148 2.219 1.143.936 2.01 2.04 2.6 3.314.59 1.274.885 2.64.885 4.101 0 3.933-2.194 7.678-6.582 11.236l-7.246 5.9h13.275c.221.411.433.936.636 1.572.203.637.304 1.33.304 2.079 0 1.348-.295 2.313-.885 2.893-.59.58-1.364.871-2.323.871H358.6c-.812-.562-1.448-1.283-1.909-2.163-.46-.88-.691-1.92-.691-3.118 0-1.273.258-2.35.774-3.23.517-.88 1.088-1.583 1.715-2.107l7.633-6.63c.958-.823 1.751-1.563 2.378-2.218.627-.656 1.134-1.246 1.521-1.77s.664-1.011.83-1.46c.166-.45.249-.88.249-1.293 0-1.048-.452-1.872-1.356-2.472-.903-.599-2.018-.899-3.346-.899-1.475 0-2.793.235-3.954.703-1.162.468-2.13.964-2.904 1.488-.627-.449-1.143-1.01-1.549-1.685-.405-.674-.608-1.46-.608-2.36 0-1.947.903-3.398 2.71-4.353 1.807-.955 4.24-1.433 7.3-1.433zM46.246 37c-1.832 0-3.495-.138-4.988-.415-1.494-.277-2.778-.692-3.853-1.245-1.075-.554-1.912-1.236-2.509-2.046-.597-.81-.896-1.75-.896-2.816 0-1.107.319-2.036.956-2.787.637-.751 1.354-1.344 2.15-1.78 1.115.831 2.31 1.552 3.584 2.165 1.275.613 2.887.92 4.839.92 1.871 0 3.206-.416 4.002-1.246.796-.83 1.195-1.838 1.195-3.024 0-1.146-.349-2.095-1.046-2.846-.697-.751-1.901-1.127-3.614-1.127-1.075 0-1.97.119-2.688.356-.716.237-1.533.573-2.449 1.008-1.951-.08-3.494-.603-4.63-1.571-1.134-.969-1.702-2.461-1.702-4.477v-.445c0-.178.02-.543.06-1.097l.717-9.013c.12-1.7.657-3.043 1.613-4.032C37.942.494 39.277 0 40.989 0h17.203c.24.435.478 1.008.717 1.72.24.711.359 1.462.359 2.253 0 1.502-.339 2.57-1.016 3.202-.677.632-1.533.948-2.568.948h-11.47l-.418 5.574c.757-.198 1.524-.375 2.3-.534.777-.158 1.762-.237 2.957-.237 2.07 0 3.863.307 5.376.92 1.513.612 2.758 1.452 3.734 2.52.975 1.067 1.692 2.312 2.15 3.735.458 1.423.687 2.945.687 4.566 0 1.62-.279 3.182-.836 4.684-.558 1.502-1.434 2.816-2.629 3.943-1.194 1.127-2.718 2.026-4.57 2.698-1.851.672-4.091 1.008-6.72 1.008z" opacity=".497" transform="translate(0 -1)"/>
        <g fill-rule="nonzero" transform="translate(0 -1) translate(329 25)">
            <ellipse cx="24.5" cy="29" fill="#F67BB4" rx="24.5" ry="29"/>
            <path stroke="#FFC200" stroke-linecap="square" d="M25.66 58c13.69 8.038-10.321 17.79 0 36"/>
            <path fill="#F67BB4" d="M23 55L27 55 28 61 22 61z"/>
            <ellipse cx="12" cy="14.5" fill="#FF9FCC" rx="5" ry="5.5"/>
            <circle cx="9" cy="27" r="3" fill="#FF9FCC"/>
        </g>
    </g>
</svg>
