<svg xmlns="http://www.w3.org/2000/svg" width="237" height="121" viewBox="0 0 237 121">
    <g fill="none" fill-rule="evenodd">
        <g fill-rule="nonzero">
            <g>
                <path fill="#814B9B" d="M225.044 100.231c18.754 6.176 10.609 15.268 7.548 20.769-10.925-4.885-15.982-8.907-7.548-20.769zm5.24-43.343c11.86 23.308-6.541 24.59-15.802 27.09-5.46-14.825-6.007-23.393 15.802-27.09zM3.747 39.731c11.622 3.582 10.394 8.936 7.964 13.346l-.194.347c-.261.458-.533.906-.8 1.34l-.2.321c-.399.639-.78 1.243-1.1 1.803-8.874-3.82-12.935-7.058-5.67-17.157zM28.662 0c11.366 22.531-6.269 23.77-15.144 26.187C8.285 11.856 7.762 3.574 28.662 0z" opacity=".125" style="mix-blend-mode:multiply" transform="translate(-384 -281) translate(384 281)"/>
                <g transform="translate(-384 -281) translate(384 281) translate(69)">
                    <g>
                        <path fill="#DFC2E8" d="M99.924 48.448c0 26.757-21.232 48.448-47.424 48.448S5.076 75.206 5.076 48.448C5.076 21.69 26.308 0 52.5 0s47.424 21.691 47.424 48.448z"/>
                        <path fill="#B277C5" d="M77.222 71.921c4.564-11.098 5.765-23.68 3.253-36.012-.77-3.785-1.866-7.435-3.274-10.928 2.108-.451 4.177-.963 6.2-1.536 2.249-.637 5.162-1.523 7.963-2.772-.627-.912-1.282-1.801-1.97-2.666-2.404 1.011-4.883 1.76-6.84 2.316-2.173.616-4.398 1.158-6.673 1.625-1.33-2.846-2.878-5.576-4.642-8.18-3.513-5.19-7.74-9.667-12.61-13.366h-.002c-.796-.106-1.595-.19-2.403-.255C55.048.054 53.858.004 52.66.002h-.003C52.652 0 52.65 0 52.646 0h-.292c-.005 0-.006 0-.011.002h-.002c-1.199.002-2.39.052-3.565.145-.808.065-1.607.15-2.403.255h-.002C41.5 4.1 37.274 8.577 33.76 13.768c-1.8 2.658-3.378 5.447-4.725 8.358-4.521-.91-9.07-2.222-13.435-4.114-.686.864-1.34 1.752-1.965 2.663 4.586 2.063 9.356 3.494 14.091 4.487-1.374 3.438-2.445 7.029-3.202 10.747-2.5 12.264-1.323 24.776 3.179 35.831-4.729.991-9.49 2.422-14.068 4.48.624.912 1.28 1.8 1.964 2.665 4.368-1.893 8.919-3.207 13.44-4.114 1.457 3.072 3.183 6.012 5.171 8.782 3.646 5.082 7.824 9.48 12.28 12.958.764.098 1.534.177 2.308.24 1.167.091 2.35.14 3.54.143h.002c.004.002.007.002.01.002h.297c.004 0 .007 0 .01-.002h.003c1.19-.002 2.373-.052 3.54-.143.774-.063 1.544-.142 2.307-.24 4.456-3.478 8.635-7.876 12.28-12.958 1.95-2.717 3.649-5.597 5.09-8.607 2.274.469 4.501 1.011 6.676 1.627 1.957.554 4.436 1.305 6.84 2.316.688-.865 1.343-1.754 1.97-2.667-2.8-1.248-5.714-2.134-7.962-2.771-2.018-.573-4.078-1.083-6.18-1.53zm.148-35.351c2.428 11.919 1.199 24.071-3.333 34.722-2.963-.536-6.004-.953-9.112-1.25 1.69-10.352 2.13-21.912 1.185-33.26-.282-3.416-.686-6.735-1.203-9.925 3.11-.298 6.15-.716 9.113-1.252 1.453 3.494 2.574 7.156 3.35 10.965zM52.5 96.67c-2.32-3.515-4.517-8.517-6.391-14.566-.888-2.863-1.65-5.922-2.282-9.13 2.533-.14 4.968-.207 7.258-.24 3.433-.047 6.797.037 10.086.256-.633 3.201-1.394 6.256-2.28 9.114-1.874 6.05-4.071 11.051-6.391 14.566zm-1.459-27.176c-2.454.035-5.07.108-7.798.268-1.681-10.141-2.122-21.52-1.194-32.707.285-3.424.691-6.743 1.211-9.923 2.722.16 5.334.233 7.781.268.645.009 1.288.013 1.926.013 2.976 0 5.9-.1 8.77-.298.521 3.184.929 6.51 1.215 9.94.927 11.193.486 22.579-1.2 32.724-3.491-.242-7.065-.337-10.71-.285zM52.5.216c3.78 5.643 6.772 13.903 8.665 23.69-3.285.217-6.65.301-10.08.254-2.288-.033-4.72-.099-7.252-.24C45.724 14.125 48.719 5.861 52.5.216zm16.13 15.395c1.504 2.221 2.842 4.54 4.013 6.948-2.702.467-5.468.832-8.298 1.094-1.404-7.366-3.42-13.944-5.92-19.31 3.888 3.212 7.305 6.982 10.205 11.268zm-32.26 0c2.9-4.286 6.317-8.056 10.204-11.269-2.505 5.38-4.523 11.976-5.928 19.362-2.72-.216-5.526-.531-8.364-.99 1.189-2.464 2.553-4.834 4.088-7.103zM27.63 36.57c.764-3.75 1.863-7.358 3.284-10.803 3.115.536 6.192.897 9.17 1.144-.512 3.173-.913 6.474-1.194 9.87-.942 11.328-.506 22.871 1.177 33.206-2.977.247-6.056.607-9.171 1.143-4.478-10.612-5.681-22.702-3.266-34.56zm9.14 45.067c-1.694-2.362-3.19-4.857-4.477-7.454 2.831-.46 5.63-.776 8.343-.992.67 3.48 1.49 6.798 2.449 9.893.85 2.74 2.022 6.095 3.513 9.365-3.539-3.029-6.863-6.68-9.828-10.812zm31.46 0c-2.965 4.132-6.29 7.783-9.828 10.812 1.491-3.271 2.663-6.626 3.513-9.365.956-3.08 1.77-6.38 2.44-9.84 2.822.263 5.581.626 8.276 1.09-1.271 2.543-2.739 4.987-4.4 7.303z"/>
                        <path fill="#B7CF98" d="M102.658 60.688H2.342C1.05 60.688 0 59.617 0 58.295V43.711c0-1.321 1.049-2.392 2.342-2.392h100.316c1.293 0 2.342 1.071 2.342 2.392v14.584c0 1.322-1.049 2.393-2.342 2.393z"/>
                        <g fill="#FFF">
                            <path d="M17.952 3.143c1.084 0 1.94 1.043 1.94 2.302v.93c0 1.213-.888 2.325-1.897 2.325-.65 0-1.214-.432-1.42-.896v2.835c0 .238-.326.465-.716.465-.401 0-.683-.227-.683-.465V3.664c0-.272.293-.454.66-.454.38 0 .652.182.652.455v.34c.25-.443.77-.862 1.464-.862zM33.7 0c.263 0 .547.2.547.5 0 .066-.01.133-.044.2l-3.926 8.064c-.078.155-.252.245-.428.245-.316 0-.524-.256-.524-.489 0-.067.022-.134.054-.19L33.307.234c.077-.155.23-.233.394-.233zm3.282 0c.262 0 .546.2.546.5 0 .066-.01.133-.043.2L33.56 8.763c-.077.155-.252.245-.427.245-.316 0-.525-.256-.525-.489 0-.067.022-.134.055-.19L36.59.234c.077-.155.23-.233.394-.233zm-13.8 3.352c.864 0 1.697.311 1.697.722 0 .201-.181.69-.501.69-.256 0-.587-.322-1.174-.322-.534 0-.747.277-.747.5 0 .812 2.562.255 2.562 2.234 0 .99-.705 1.623-1.965 1.623-1.089 0-1.932-.467-1.932-.956 0-.233.193-.634.459-.634.31 0 .545.501 1.442.501.63 0 .778-.256.778-.479 0-.978-2.53-.366-2.53-2.223 0-.789.48-1.656 1.911-1.656zm3.995 3.916c.383 0 .713.35.713.766 0 .405-.33.765-.713.765-.414 0-.723-.36-.723-.765 0-.416.309-.766.723-.766zm17.447-3.916c.347 0 .902.244.902.599 0 .066-.01.144-.043.2L43.81 8.543c-.077.189-.316.255-.555.255-.272 0-.511-.088-.576-.255l-.838-2.418-.826 2.407c-.065.178-.326.266-.598.266-.228 0-.468-.066-.544-.266L38.199 4.15c-.044-.088-.054-.154-.054-.21 0-.344.543-.588.913-.588.185 0 .347.077.402.233l1.087 3.15.816-2.74c.076-.255.261-.288.478-.288.207 0 .402.033.479.289l.805 2.75 1.097-3.16c.055-.146.207-.234.403-.234zm8.203 0c.348 0 .902.244.902.599 0 .066-.01.144-.043.2l-1.674 4.393c-.077.189-.316.255-.555.255-.272 0-.51-.088-.576-.255l-.837-2.418-.827 2.407c-.065.178-.326.266-.598.266-.228 0-.467-.066-.543-.266L46.402 4.15c-.044-.088-.054-.154-.054-.21 0-.344.543-.588.912-.588.186 0 .348.077.403.233l1.087 3.15.816-2.74c.076-.255.261-.288.478-.288.207 0 .402.033.478.289l.806 2.75 1.098-3.16c.054-.146.206-.234.402-.234zm7.998 0c.348 0 .903.244.903.599 0 .066-.012.144-.044.2L60.01 8.543c-.075.189-.315.255-.554.255-.272 0-.51-.088-.576-.255l-.838-2.418-.826 2.407c-.065.178-.326.266-.598.266-.228 0-.468-.066-.543-.266L54.4 4.15c-.044-.088-.054-.154-.054-.21 0-.344.544-.588.913-.588.185 0 .348.077.402.233l1.088 3.15.815-2.74c.076-.255.26-.288.478-.288.207 0 .403.033.479.289l.804 2.75 1.098-3.16c.055-.146.207-.234.403-.234zM.707.21c.386 0 .718.178.718.446v3.42c.2-.434.696-.846 1.392-.846 1.016 0 1.9 1.025 1.9 2.262v2.64c0 .301-.365.458-.718.458-.332 0-.707-.157-.707-.458v-2.64c0-.502-.442-1.003-.962-1.003-.452 0-.905.378-.905 1.003v2.641c0 .223-.331.457-.718.457-.42 0-.707-.234-.707-.457V.656C0 .388.287.21.707.21zM7.06.838c.363 0 .714.181.714.452v1.94h1.297c.231 0 .363.271.363.53 0 .271-.132.53-.363.53H7.774v2.472c0 .44.154.598.616.598h.428c.407 0 .604.305.604.61 0 .315-.197.62-.604.62H8.39c-1.319 0-2.033-.553-2.033-1.828V1.29c0-.27.374-.452.703-.452zm4.307 0c.363 0 .714.181.714.452v1.94h1.297c.23 0 .362.271.362.53 0 .271-.131.53-.362.53H12.08v2.472c0 .44.154.598.616.598h.428c.407 0 .604.305.604.61 0 .315-.197.62-.604.62h-.428c-1.319 0-2.033-.553-2.033-1.828V1.29c0-.27.373-.452.703-.452zm6.14 3.586c-.456 0-.932.385-.932 1.02V6.58c0 .238.4.84.953.84.51 0 .966-.523.966-1.045v-.93c0-.51-.444-1.02-.987-1.02zm9.671-.443c.383 0 .713.349.713.765 0 .405-.33.766-.713.766-.414 0-.723-.36-.723-.766 0-.416.309-.765.723-.765z" transform="translate(10.254 45.881)"/>
                        </g>
                        <path fill="#9ACA5B" d="M102.658 60.762H84.222v-19.66h18.436c1.293 0 2.342 1.071 2.342 2.393V58.37c0 1.321-1.049 2.392-2.342 2.392z"/>
                        <path fill="#FFF" d="M95.548 46.426l.95 1.965c.115.24.339.405.597.444l2.124.315c.65.096.91.914.44 1.383l-1.537 1.53c-.188.186-.273.454-.228.718l.362 2.16c.111.662-.57 1.167-1.152.855l-1.899-1.02c-.231-.124-.508-.124-.738 0l-1.9 1.02c-.581.312-1.262-.193-1.151-.855l.363-2.16c.044-.264-.042-.532-.228-.718l-1.537-1.53c-.471-.47-.211-1.287.44-1.383l2.123-.315c.258-.039.482-.205.597-.444l.95-1.965c.291-.603 1.132-.603 1.424 0z"/>
                    </g>
                    <ellipse fill="#814B9B" opacity=".125" style="mix-blend-mode:multiply" cx="53" cy="114.5" rx="40" ry="5.5"/>
                </g>
            </g>
        </g>
    </g>
</svg>
