<?xml version="1.0" encoding="UTF-8"?>
<svg width="336px" height="267px" viewBox="0 0 336 267" version="1.1" xmlns="http://www.w3.org/2000/svg" xmlns:xlink="http://www.w3.org/1999/xlink">
    <title>Icon/logo-master</title>
    <defs>
        <linearGradient x1="84.2210796%" y1="82.4980414%" x2="5.12695105%" y2="-0.35592741%" id="linearGradient-1">
            <stop stop-color="#6099D5" stop-opacity="0.8" offset="0%"></stop>
            <stop stop-color="#005CB9" offset="100%"></stop>
        </linearGradient>
        <linearGradient x1="61.4812543%" y1="16.6509701%" x2="38.5187506%" y2="83.3490299%" id="linearGradient-2">
            <stop stop-color="#9EC768" offset="0%"></stop>
            <stop stop-color="#74AF27" offset="100%"></stop>
        </linearGradient>
        <linearGradient x1="92.7667098%" y1="74.7195826%" x2="24.3564657%" y2="8.78040973%" id="linearGradient-3">
            <stop stop-color="#74AF27" offset="0%"></stop>
            <stop stop-color="#ACCF7E" offset="100%"></stop>
        </linearGradient>
    </defs>
    <g id="Mobil" stroke="none" stroke-width="1" fill="none" fill-rule="evenodd">
        <g id="Logo">
            <g id="Uni" transform="translate(9.464789, 0.000000)">
                <path d="M246.336185,46.4196308 L230.309859,46.4196308 L230.309859,144.622438 C230.314205,148.515234 233.44013,151.668639 237.29465,151.668639 L279.211268,151.668639 L279.211268,78.8287353 C269.121276,79.2448695 259.020042,78.3548735 249.153832,76.1804454 C247.000442,66.2136805 245.918542,56.6121839 246.336185,46.4196308 Z" id="Path" fill="#EA5297" opacity="0.79"></path>
                <path d="M224,108.663152 L224,108.663152 C224.009638,85.4739024 211.188665,64.1652592 190.64949,53.23413 C170.110315,42.3030008 145.19369,43.527363 125.835219,56.4189972 L125.835219,87.7229962 L125.835219,87.7229962 C125.843054,108.709254 115.325754,128.31336 97.8028169,139.975021 L97.8028169,150.559203 L139.87908,150.559203 C143.751916,150.55052 146.885624,147.419668 146.881253,143.563413 L146.881253,143.563413 L146.881253,108.671022 L146.881253,108.671022 C146.760454,103.605956 149.405192,98.8733079 153.791505,96.3054152 C158.177817,93.7375224 163.617091,93.7375224 168.003404,96.3054152 C172.389716,98.8733079 175.034454,103.605956 174.913655,108.671022 L174.913655,108.671022 L174.913655,171.546575 L174.913655,171.546575 C174.913655,175.401551 178.052173,178.526627 181.923731,178.526627 L223.984188,178.526627 L223.984188,108.663152 L224,108.663152 Z" id="Path" fill="#FFC629"></path>
                <path d="M98.1647803,109.768151 C98.1496952,88.7735669 108.669019,69.1605589 126.197183,57.5024603 L126.197183,46.8981697 L84.128821,46.8981697 C80.2603498,46.9068561 77.1301797,50.035474 77.1345508,53.8889715 L77.1345508,53.8889715 L77.1345508,88.8193632 C76.9537511,96.40549 70.7282111,102.461442 63.1104462,102.461442 C55.4926814,102.461442 49.2671414,96.40549 49.0863417,88.8193632 L49.0863417,88.8193632 L49.0863417,25.9493817 L49.0863417,25.9493817 C49.0863417,22.0884685 45.9442852,18.9585799 42.0683621,18.9585799 L0,18.9585799 L0,88.8193632 L0,88.8193632 C0.00770329544,112.007159 12.827826,133.3083 33.3558287,144.241393 C53.8838314,155.174486 78.7867077,153.964391 98.148974,141.092926 L98.148974,109.768151 L98.1647803,109.768151 Z" id="Path" fill="url(#linearGradient-1)"></path>
                <path d="M97.8028169,109.231006 L97.8028169,109.231006 L97.8028169,140.609467 C115.55202,128.923006 126.205115,109.277206 126.197183,88.246315 L126.197183,88.246315 L126.197183,56.8757396 C108.442699,68.5538185 97.7875535,88.2004403 97.8028169,109.231006 L97.8028169,109.231006 Z" id="Path" fill="url(#linearGradient-2)" style="mix-blend-mode: multiply;"></path>
                <path d="M279.211268,52.8847451 C279.211268,48.9810987 276.050297,45.816568 272.151043,45.816568 L246.186608,45.816568 C245.764454,56.0293834 246.652571,66.2542288 248.829217,76.240807 C258.80198,78.4195577 269.012306,79.311323 279.211268,78.8943616 L279.211268,52.8847451 Z" id="Path" fill="#EA5297"></path>
                <path d="M323.762486,2.71783705 C323.762486,2.71783705 279.452543,-7.79627545 258.741073,12.5351841 C249.792953,21.3426127 246.698594,34.4558952 246.084507,46.4966286 L272.099452,46.4966286 C276.006293,46.4966286 279.173412,49.6056386 279.173412,53.4407968 L279.173412,78.9940828 C291.455146,78.3912633 304.813526,75.3693367 313.769621,66.5775658 C334.481091,46.2304486 323.762486,2.71783705 323.762486,2.71783705 Z" id="Path" fill="url(#linearGradient-3)"></path>
            </g>
            <path d="M135.572962,195.905325 C137.672746,195.902462 139.406301,197.561027 139.515488,199.67731 C139.515488,201.268863 138.143489,203.711896 137.59942,205.184083 C136.329927,208.406978 133.775171,216.324954 133.775171,219.595595 L133.775961,219.775359 C133.783467,220.403822 133.862282,221.53729 134.689837,221.53729 C136.140686,221.53729 139.964935,217.669816 141.053072,216.571644 C145.973344,211.518464 149.971064,205.55014 154.347267,199.955831 C155.135772,198.937238 156.168713,197.377516 157.619563,197.377516 C158.271895,197.410706 158.90119,197.63161 159.433124,198.014137 C160.972586,199.09393 160.904044,206.293474 160.899907,208.345739 L160.899744,208.486555 C160.899744,224.648776 160.34779,243.675791 151.437683,257.633711 C148.433479,262.320834 143.552633,267 137.694041,267 C132.142966,267 130.045542,261.954777 130.045542,257.084625 C130.045542,244.773963 144.514609,232.638372 153.882049,226.407442 C153.97667,224.648776 153.97667,222.913983 153.97667,221.171232 C153.97667,216.396574 153.882049,211.70945 153.708578,206.926833 C150.704374,211.987972 138.726983,225.84244 132.687034,225.84244 C128.594693,225.84244 127.774648,221.799896 127.774648,218.505381 C127.774648,212.998608 129.351658,207.205355 130.928668,201.969146 C131.229253,200.77605 131.627503,199.610209 132.119311,198.483645 C132.844735,197.011458 133.854022,195.905325 135.572962,195.905325 Z M153.432601,230.346535 C145.697367,236.593381 134.043263,246.42122 134.043263,257.267654 C134.043263,259.567448 134.689837,263.1564 137.59942,263.1564 C140.509004,263.1564 143.331852,259.742518 144.979827,257.633711 C149.710857,251.195879 152.612556,238.344089 153.432601,230.346535 Z M24.2824431,158.714062 C24.2792443,158.935817 24.2186163,159.153091 24.1063093,159.345276 C22.9134033,162.169958 22.3529776,166.27285 21.7044851,169.279006 C27.3087416,169.279006 47.3239437,169.831319 47.3239437,177.753054 C47.3239437,184.941004 32.1123901,193.138896 25.8035984,194.68537 C32.400609,196.263405 47.1798342,200.737134 47.1798342,209.195402 C47.1798342,221.488295 23.1615918,228.786707 13.081936,228.684135 C11.8730178,231.887546 10.7761848,232.242604 7.47767948,232.242604 C6.54096802,232.242604 4.42736269,232.140031 4.42736269,230.782921 C4.42736269,228.510551 4.69956943,226.143498 4.89171537,223.855347 C5.25198901,219.862919 5.62827481,215.760028 6.07661533,211.751819 C7.5176872,198.746504 9.65562752,185.825394 12.48148,173.04262 C9.71137602,173.224094 6.94127206,173.405568 4.25923499,173.768516 C3.3385357,173.855308 2.31375735,174.139354 1.39305806,174.139354 C0.472358768,174.139354 0,173.855308 0,172.955828 C0,171.133197 2.40182424,170.951723 3.69080325,170.770249 C6.94127206,170.312619 10.0956679,169.768197 13.2981002,169.578833 C13.7464407,167.495827 14.3068664,165.39704 14.955359,163.266693 C15.5813077,161.148062 17.201458,159.454509 19.3106669,158.714062 C20.3866253,158.249117 21.5465004,158.002254 22.7212573,157.988166 L22.894986,157.989161 C23.4094838,157.997127 24.2824431,158.068821 24.2824431,158.714062 Z M108.064078,161.147929 C109.3876,161.147929 109.929393,162.053377 109.929393,163.321004 C109.929393,165.872006 108.242096,169.97408 107.344267,172.328245 C103.141503,183.138507 102.62293,184.043955 100.842754,195.578577 C99.9449256,201.310457 98.6910623,207.215553 98.6910623,213.034041 L98.6914292,213.30869 C98.7004491,216.429969 98.9136141,226.844093 103.242122,226.844093 C104.790101,226.844093 106.105884,225.757555 107.112071,224.757626 C110.587284,221.395658 113.992839,213.734779 113.992839,208.84536 C113.992839,202.940263 110.238989,200.86167 104.960379,200.86167 C103.892273,200.86167 102.909306,199.286977 102.909306,198.302795 C102.909306,196.499772 104.782361,195.759666 106.307121,195.665185 C108.087298,195.578577 109.797815,195.578577 111.570251,195.484095 C115.153824,195.310879 118.629038,194.696749 122.20487,194.397558 L122.475767,194.397558 C123.009756,194.360874 123.536113,194.542088 123.938446,194.901128 C124.340779,195.260168 124.58594,195.767453 124.619718,196.310809 C124.619718,198.578366 118.992813,199.310598 117.290036,199.460193 C118.609546,201.491665 119.289854,203.883626 119.24049,206.317978 C119.085538,213.529645 116.18274,220.398081 111.144557,225.474111 C108.551691,228.119594 104.797841,230.662722 100.958852,230.662722 C94.8481798,230.662722 92.6039615,224.402097 91.8455067,218.633505 C88.221055,223.462499 81.943378,230.662722 75.9090303,230.662722 C69.7807002,230.662722 68.6708452,220.884544 69.0407969,216.49822 C66.6280685,220.243223 60.9983689,228.556653 56.0442334,228.556653 C51.5002616,228.556653 50.4788732,222.531395 50.4788732,219.05559 C50.4788732,209.467433 60.5882051,192.745562 71.4535252,192.745562 C72.7403137,192.745562 74.5096478,194.289485 74.5096478,195.564211 C74.5096478,196.11844 74.0512294,196.403471 73.5767262,196.672668 C70.2416733,198.498346 67.1804184,200.771295 64.4807402,203.426341 C59.6552835,208.271883 56.5911185,214.510914 56.5911185,221.35168 C56.5911185,222.080095 56.69567,223.544842 57.8055251,223.544842 C61.9795452,223.544842 69.7807002,207.361364 71.5419919,203.608444 C72.1934286,202.238708 72.933332,200.884806 74.6865813,200.884806 C75.6275453,200.884806 76.8339095,201.146086 76.8339095,202.333718 C76.8339095,203.521351 75.6275453,206.292495 75.1610845,207.638479 C74.1879888,210.932436 73.7190564,214.35079 73.7697445,217.780864 C73.7697445,219.696911 73.8662536,226.743533 76.7454428,226.743533 C81.1044387,226.743533 88.3426238,217.875874 90.5784188,214.407986 C90.8295259,213.986278 91.1230221,213.467755 91.492384,213.03023 C91.4929853,212.999686 91.4929577,212.96956 91.4929577,212.93956 C91.4929577,198.491758 94.0239042,187.138226 97.9480321,173.328174 C99.1941556,168.871795 98.3582467,171.753482 100.053284,167.415204 C101.229749,164.423289 102.019218,163.415486 104.968119,162.053377 C105.926863,161.535542 106.981369,161.22714 108.064078,161.147929 Z M16.5165447,196.815717 C15.3396508,204.461297 13.7384347,212.209449 13.7384347,219.941821 C13.7384347,221.133237 13.7384347,222.308873 13.8425137,223.50029 C20.1192811,222.947977 41.6556384,218.308554 41.6556384,210.378928 C41.6556384,201.549822 23.3617438,197.904562 16.5165447,196.815717 Z M20.863,172.868166 C19.4707885,179.425771 18.4620223,186.069299 17.3491771,192.594474 C23.1695979,191.229473 41.8477844,186.12453 41.8477844,178.841898 C41.8319606,173.563093 25.1307951,172.88454 20.9903188,172.869305 L20.863,172.868166 Z" id="Baby" fill="#3C89CE" fill-rule="nonzero"></path>
        </g>
    </g>
</svg>