<svg xmlns="http://www.w3.org/2000/svg" width="60" height="60" viewBox="0 0 60 60">
    <g fill="none" fill-rule="evenodd">
        <g fill="#FFF" fill-rule="nonzero">
            <g>
                <g>
                    <path d="M30 0c6.549 0 13.098.89 19.647 2.671l.893.249c3.26.927 5.83 3.443 6.825 6.684C59.122 15.326 60 21.624 60 28.5c0 6.877-.879 13.763-2.636 20.658l-.257.985c-.914 3.42-3.568 6.103-6.978 7.053C43.419 59.066 36.709 60 30 60c-6.438 0-12.876-.86-19.314-2.582l-.92-.251c-3.363-.942-5.99-3.57-6.933-6.933C.944 43.489 0 36.744 0 30c0-6.438.86-12.876 2.582-19.314l.251-.92c.942-3.363 3.57-5.99 6.933-6.933C16.511.944 23.256 0 30 0zm-5 20.392c-.552 0-1 .448-1 1v18.716c0 .2.06.397.174.563.31.457.933.574 1.39.263l13.724-9.358c.103-.07.193-.16.263-.263.311-.456.194-1.078-.263-1.39l-13.725-9.357c-.166-.113-.362-.174-.563-.174z" transform="translate(-983 -1515) translate(743 1295) translate(240 220)"/>
                </g>
            </g>
        </g>
    </g>
</svg>
